<?xml version="1.0" standalone="no"?>
<!DOCTYPE svg PUBLIC "-//W3C//DTD SVG 20010904//EN"
 "http://www.w3.org/TR/2001/REC-SVG-20010904/DTD/svg10.dtd">
<svg version="1.0" xmlns="http://www.w3.org/2000/svg"
 width="1042.000000pt" height="1280.000000pt" viewBox="0 0 1042.000000 1280.000000"
 preserveAspectRatio="xMidYMid meet">
<metadata>
Created by potrace 1.15, written by Peter Selinger 2001-2017
</metadata>
<g transform="translate(0.000000,1280.000000) scale(0.100000,-0.100000)"
fill="#000000" stroke="none">
<path d="M5040 12789 c-1065 -81 -2125 -577 -3065 -1435 -145 -133 -431 -421
-456 -461 -11 -18 -20 -56 -23 -105 -5 -74 -3 -84 68 -310 41 -128 77 -241 81
-250 4 -10 4 -18 1 -18 -4 0 -95 -16 -203 -35 -317 -58 -362 -82 -384 -208 -6
-41 -9 -101 -5 -141 3 -39 11 -133 16 -208 9 -129 9 -139 -11 -185 -12 -26
-52 -130 -89 -230 l-69 -182 -2 -959 c-1 -668 2 -965 9 -979 6 -11 101 -75
212 -143 110 -67 200 -124 198 -125 -2 -1 -102 -17 -223 -36 -201 -30 -222
-36 -243 -59 l-23 -25 6 -255 c3 -140 10 -388 15 -550 5 -162 14 -448 20 -635
6 -187 15 -482 20 -655 5 -173 14 -466 20 -650 6 -184 15 -474 20 -645 27
-859 32 -1050 43 -1413 7 -215 10 -392 7 -392 -3 0 -189 127 -414 281 -224
154 -410 278 -412 276 -3 -2 88 -231 201 -507 112 -277 203 -505 201 -507 -2
-2 -123 62 -269 142 -147 80 -269 145 -272 145 -18 0 24 -56 277 -373 154
-193 286 -358 291 -365 6 -7 -14 -2 -44 11 -30 13 -115 52 -189 85 -74 33
-166 74 -203 91 l-69 31 27 -47 c63 -110 219 -335 296 -427 229 -273 375 -322
767 -255 139 23 207 50 391 152 207 115 267 139 373 145 80 4 91 3 150 -25 45
-21 95 -60 176 -136 62 -58 134 -119 160 -137 101 -67 288 -96 452 -69 91 14
133 36 225 114 44 37 95 75 115 83 51 21 130 10 233 -32 204 -85 261 -71 387
94 82 107 111 130 167 130 70 0 105 -24 228 -155 137 -145 182 -174 288 -182
82 -6 155 5 242 38 53 19 77 39 200 163 154 156 200 186 281 186 61 0 217 -51
358 -117 189 -88 256 -71 404 100 149 175 140 170 341 165 152 -4 158 -5 246
-41 50 -20 133 -59 185 -88 255 -139 349 -176 466 -186 95 -8 148 12 261 95
131 97 157 107 283 106 87 -1 131 -8 261 -42 136 -34 180 -51 328 -125 173
-86 235 -107 317 -107 71 0 103 20 207 133 111 120 143 137 205 111 51 -21 67
-38 134 -139 79 -118 110 -150 188 -190 132 -66 207 -88 305 -89 173 -2 229
58 286 304 48 212 57 230 212 440 150 204 197 311 197 451 0 96 -51 384 -104
589 -67 259 -120 433 -134 438 -9 3 -12 -82 -12 -367 0 -204 -3 -371 -7 -371
-10 1 -116 134 -177 221 -99 142 -125 233 -126 424 0 110 -19 201 -50 245 -20
28 -20 49 -20 1645 l0 1617 -115 134 c-63 73 -115 138 -115 144 0 6 45 133
100 282 l101 272 6 1265 5 1266 -131 460 c-73 253 -141 490 -152 526 -16 58
-37 90 -159 244 -77 98 -140 183 -140 189 0 71 -42 612 -48 617 -650 579
-1138 923 -1727 1214 -517 255 -982 403 -1495 474 -279 39 -615 50 -880 30z"/>
</g>
</svg>
