<?xml version="1.0" standalone="no"?>
<!DOCTYPE svg PUBLIC "-//W3C//DTD SVG 20010904//EN"
 "http://www.w3.org/TR/2001/REC-SVG-20010904/DTD/svg10.dtd">
<svg version="1.0" xmlns="http://www.w3.org/2000/svg"
 width="1280.000000pt" height="840.000000pt" viewBox="0 0 1280.000000 840.000000"
 preserveAspectRatio="xMidYMid meet">
<metadata>
Created by potrace 1.15, written by Peter Selinger 2001-2017
</metadata>
<g transform="translate(0.000000,840.000000) scale(0.100000,-0.100000)"
fill="#000000" stroke="none">
<path d="M8420 8303 c-74 -48 -313 -203 -530 -346 -217 -143 -404 -265 -415
-272 -17 -11 -36 -6 -140 36 -672 271 -1510 186 -2091 -213 l-71 -48 -98 40
c-138 58 -336 158 -482 246 -69 40 -127 74 -129 74 -3 0 72 -132 306 -536 l88
-151 -35 -54 c-76 -118 -138 -272 -168 -417 -19 -90 -21 -286 -5 -387 21 -130
88 -307 164 -431 l25 -40 -226 -48 c-124 -26 -227 -46 -228 -44 -3 3 -176 824
-178 848 -1 10 13 17 46 23 26 5 47 12 47 16 -1 7 -228 154 -245 159 -10 2
-175 -233 -175 -249 0 -3 22 -1 50 5 27 5 51 8 53 5 8 -9 179 -841 174 -846
-6 -5 -84 37 -176 94 -29 19 -55 32 -58 30 -4 -4 10 -126 19 -168 3 -15 -451
-115 -462 -102 -5 6 -176 802 -184 857 0 5 21 14 49 20 l50 11 -118 78 c-65
42 -122 77 -126 77 -11 0 -164 -230 -158 -236 2 -3 24 0 48 5 24 5 44 9 45 8
1 -1 47 -220 103 -487 56 -267 104 -492 107 -501 4 -13 51 -6 347 57 188 40
343 72 344 71 1 -1 26 -51 56 -112 49 -97 158 -270 246 -390 27 -37 45 -114
240 -1041 116 -550 211 -1011 211 -1025 0 -13 -38 -233 -84 -489 -128 -708
-175 -1054 -191 -1416 -8 -180 -3 -197 84 -275 113 -101 428 -231 677 -279
102 -19 141 -20 1247 -20 1250 0 1200 -2 1420 60 302 86 569 234 621 345 17
34 12 66 -228 1723 -135 928 -254 1712 -264 1744 l-18 56 115 119 c250 256
434 531 531 793 28 75 65 239 56 247 -2 3 -27 -7 -55 -22 -278 -141 -731 -264
-1190 -325 -197 -26 -211 -25 -126 9 748 295 1148 943 969 1569 -53 187 -194
421 -338 562 -31 30 -56 58 -56 62 0 5 146 232 325 504 179 273 325 498 323
499 -2 2 -64 -35 -138 -82z m-3245 -2849 c101 -76 188 -130 293 -183 45 -23
82 -43 82 -45 0 -7 -264 47 -430 89 -224 56 -380 103 -548 167 -181 69 -200
89 -104 108 31 7 147 31 257 54 l200 43 85 -86 c47 -48 121 -114 165 -147z
m-477 -905 c41 -38 110 -97 152 -131 l76 -60 -17 -52 c-12 -36 -18 -103 -22
-231 -6 -164 -34 -494 -43 -504 -2 -2 -5 -2 -7 0 -6 7 -223 1049 -219 1049 2
0 38 -32 80 -71z"/>
</g>
</svg>
